<svg xmlns="http://www.w3.org/2000/svg" viewBox="0 0 344.72 332.64"><defs><style>.a{fill:#ed3e3e;}.b{fill:#fff;}</style></defs><path class="a" d="M249.27,332.93c.07-14.7.13-31.62.13-46.9,0-23.5-7.8-38.5-17-46.4,55.9-6.3,114.8-14,114.8-110.5,0-27.4-9.8-41.2-25.8-58.9,2.6-6.5,11.1-33.2-2.6-67.9-20.9-6.6-69,27-69,27a236.24,236.24,0,0,0-125.6,0s-48.1-33.5-69-27c-13.7,34.6-5.2,61.4-2.6,67.9-16,17.6-23.6,31.4-23.6,58.9,0,96.2,56.4,104.3,112.3,110.5-7.2,6.6-13.7,17.7-16,33.7-14.3,6.6-51,17.7-72.9-20.9-13.7-23.8-38.6-25.8-38.6-25.8-24.5-.3-1.6,15.4-1.6,15.4,16.4,7.5,27.8,36.6,27.8,36.6,14.7,44.8,84.7,29.8,84.7,29.8,0,7,0,15.47.08,23.87C166.45,333.76,207.72,335.2,249.27,332.93Z" transform="translate(-2.48 -1.47)"/><path class="a" d="M31.2,239.73c-.7,1.4-2.7,1.7-4.3.7-2-1-3-2.6-2.3-3.9.7-1,2.3-1.3,4.3-.7C30.9,236.83,31.9,238.43,31.2,239.73Z" transform="translate(-2.48 -1.47)"/><path class="b" d="M41.3,250.83c-1.3,1.3-3.6.6-5.2-1-1.7-1.9-2-4.2-.7-5.2,1.3-1.3,3.6-.6,5.2,1C42.3,247.53,42.6,249.83,41.3,250.83Z" transform="translate(-2.48 -1.47)"/><path class="b" d="M51.2,265.63c-1.3,1-4,0-5.6-2.3s-1.6-4.9,0-5.9c1.6-1.3,4.2-.3,5.6,2C52.8,261.73,52.8,264.33,51.2,265.63Z" transform="translate(-2.48 -1.47)"/><path class="b" d="M64.8,279.33c-1.3,1.6-4.2,1.3-6.5-1-2.3-1.9-2.9-4.9-1.3-6.2,1.3-1.6,4.3-1.3,6.5,1C65.5,275,66.1,278,64.8,279.33Z" transform="translate(-2.48 -1.47)"/><path class="b" d="M83.5,287.53c-.6,2-3.6,3-6.2,2-3-.6-5-2.9-4.3-4.9s3.6-3,6.2-2.3C82.2,283.23,84.1,285.53,83.5,287.53Z" transform="translate(-2.48 -1.47)"/><path class="b" d="M98.9,292.73c-3.3.3-5.6-1.3-5.6-3.6,0-2,2.3-3.6,5.2-3.6,3-.3,5.6,1.3,5.6,3.6C104.1,291.13,101.8,292.73,98.9,292.73Z" transform="translate(-2.48 -1.47)"/><path class="b" d="M118.5,290.43c-3,.7-5.6-.6-5.9-2.6-.3-2.3,1.7-4.2,4.6-4.9,2.9-.3,5.6,1,5.9,2.9S121.4,289.73,118.5,290.43Z" transform="translate(-2.48 -1.47)"/><path class="b" d="M28.9,235.83c-2-.6-3.6-.3-4.3.7-.7,1.3.3,2.9,2.3,3.9,1.6,1,3.6.7,4.3-.7S30.9,236.83,28.9,235.83Z" transform="translate(-2.48 -1.47)"/><path class="b" d="M35.4,244.63c-1.3,1-1,3.3.7,5.2,1.6,1.6,3.9,2.3,5.2,1,1.3-1,1-3.3-.7-5.2C39,244,36.7,243.33,35.4,244.63Z" transform="translate(-2.48 -1.47)"/><path class="b" d="M45.6,257.43c-1.6,1-1.6,3.6,0,5.9s4.3,3.3,5.6,2.3c1.6-1.3,1.6-3.9,0-6.2C49.8,257.13,47.2,256.13,45.6,257.43Z" transform="translate(-2.48 -1.47)"/><path class="b" d="M57,272.13c-1.6,1.3-1,4.3,1.3,6.2,2.3,2.3,5.2,2.6,6.5,1,1.3-1.3.7-4.3-1.3-6.2C61.3,270.83,58.3,270.53,57,272.13Z" transform="translate(-2.48 -1.47)"/><path class="b" d="M79.2,282.33c-2.6-.7-5.5.3-6.2,2.3s1.3,4.3,4.3,4.9c2.6,1,5.6,0,6.2-2S82.2,283.23,79.2,282.33Z" transform="translate(-2.48 -1.47)"/><path class="b" d="M98.5,285.53c-2.9,0-5.2,1.6-5.2,3.6,0,2.3,2.3,3.9,5.6,3.6,2.9,0,5.2-1.6,5.2-3.6C104.1,286.83,101.5,285.23,98.5,285.53Z" transform="translate(-2.48 -1.47)"/><path class="b" d="M117.2,282.93c-2.9.7-4.9,2.6-4.6,4.9.3,2,2.9,3.3,5.9,2.6s4.9-2.6,4.6-4.6S120.1,282.63,117.2,282.93Z" transform="translate(-2.48 -1.47)"/></svg>